<?xml version="1.0" encoding="UTF-8"?>
<svg version="1.1" viewBox="0 0 288 288" xmlns="http://www.w3.org/2000/svg">
<svg width="288" height="288" data-name="Layer 1" viewBox="0 0 858.756 581.934" xmlns="http://www.w3.org/2000/svg">
<path class="colorf2f2f2 svgShape" transform="translate(-170.62 -159.03)" d="m982.6 738.67a198.59 198.59 0 0 1 16.436-62.675q3.7094-8.2865 8.1655-16.208a1.2103 1.2103 0 0 0-2.0886-1.2208 201.33 201.33 0 0 0-22.403 61.805q-1.682 9.0855-2.5283 18.299c-0.14337 1.5493 2.2763 1.5396 2.4188 0z" fill="#f2f2f2"/>
<circle class="colorf2f2f2 svgShape" cx="842.44" cy="489.32" r="15.319" fill="#f2f2f2"/>
<path class="colorf2f2f2 svgShape" transform="translate(-170.62 -159.03)" d="m984.17 739.08a128.83 128.83 0 0 1 10.662-40.66q2.4064-5.3758 5.2973-10.515a0.78518 0.78518 0 0 0-1.355-0.792 130.61 130.61 0 0 0-14.534 40.096q-1.0912 5.8942-1.6402 11.872c-0.093 1.0051 1.4768 0.99878 1.5692 0z" fill="#f2f2f2"/>
<circle class="colorf2f2f2 svgShape" cx="833.31" cy="521.45" r="9.938" fill="#f2f2f2"/>
<path class="colorf2f2f2 svgShape" transform="translate(-170.62 -159.03)" d="m982.19 738.14a128.83 128.83 0 0 1-16.601-38.618q-1.409-5.7188-2.2905-11.549a0.78518 0.78518 0 0 0-1.5555 0.2089 130.61 130.61 0 0 0 13.202 40.554q2.7649 5.3186 6.0085 10.369c0.54487 0.84972 1.7787-0.12078 1.2373-0.96515z" fill="#f2f2f2"/>
<circle class="colorf2f2f2 svgShape" cx="791.11" cy="520.76" r="9.938" fill="#f2f2f2"/>
<path class="colorf2f2f2 svgShape" transform="translate(-170.62 -159.03)" d="m341.05 738.67a198.59 198.59 0 0 0-16.436-62.675q-3.7094-8.2865-8.1655-16.208a1.2103 1.2103 0 0 1 2.0886-1.2208 201.33 201.33 0 0 1 22.403 61.805q1.682 9.0855 2.5283 18.299c0.14338 1.5493-2.2763 1.5396-2.4188 0z" fill="#f2f2f2"/>
<circle class="colorf2f2f2 svgShape" cx="139.97" cy="489.32" r="15.319" fill="#f2f2f2"/>
<path class="colorf2f2f2 svgShape" transform="translate(-170.62 -159.03)" d="m339.48 739.08a128.83 128.83 0 0 0-10.662-40.66q-2.4064-5.3758-5.2973-10.515a0.78518 0.78518 0 0 1 1.355-0.792 130.61 130.61 0 0 1 14.534 40.096q1.0912 5.8942 1.6402 11.872c0.093 1.0051-1.4768 0.99878-1.5692 0z" fill="#f2f2f2"/>
<circle class="colorf2f2f2 svgShape" cx="149.1" cy="521.45" r="9.938" fill="#f2f2f2"/>
<path class="colorf2f2f2 svgShape" transform="translate(-170.62 -159.03)" d="m341.46 738.14a128.83 128.83 0 0 0 16.601-38.618q1.409-5.7188 2.2905-11.549a0.78518 0.78518 0 0 1 1.5555 0.2089 130.61 130.61 0 0 1-13.202 40.554q-2.7649 5.3186-6.0084 10.369c-0.54487 0.84972-1.7787-0.12078-1.2373-0.96515z" fill="#f2f2f2"/>
<circle class="colorf2f2f2 svgShape" cx="191.3" cy="520.76" r="9.938" fill="#f2f2f2"/>
<path class="color6c63ff svgShape" transform="translate(-170.62 -159.03)" d="m925.02 538.41 0.2391 180.11a12.626 12.626 0 0 1-12.593 12.63l-74.817 0.10967c21.062-39.4 32.987-101.41 32.917-149.22a281.27 281.27 0 0 0-5.721-56.161l47.345-0.0694a12.626 12.626 0 0 1 12.63 12.593z" fill="#151515"/>
<path class="color3f3d56 svgShape" transform="translate(-170.62 -159.03)" d="m1028.2 740.97h-738.29a1.1907 1.1907 0 0 1 0-2.3814h738.29a1.1907 1.1907 0 0 1 0 2.3814zm-212.8-227.17-133.34-0.52295 12.966-43.137a16.599 16.599 0 0 1 15.804-11.75h0.06274l76.106 0.29883a16.597 16.597 0 0 1 15.774 11.875z" fill="#1f1f1f"/>
<path class="color6c63ff svgShape" transform="translate(-170.62 -159.03)" d="m889.83 499.03a14 14 0 0 0-14 14h28a14 14 0 0 0-14-14z" fill="#151515"/>
<path class="color3f3d56 svgShape" transform="translate(-170.62 -159.03)" d="m932.83 740.03h-368a17.019 17.019 0 0 1-17-17v-194a17.019 17.019 0 0 1 17-17h368a17.019 17.019 0 0 1 17 17v194a17.019 17.019 0 0 1-17 17zm-368-226a15.017 15.017 0 0 0-15 15v194a15.017 15.017 0 0 0 15 15h368a15.017 15.017 0 0 0 15-15v-194a15.017 15.017 0 0 0-15-15z" fill="#1f1f1f"/>
<path class="colorfff svgShape" transform="translate(-170.62 -159.03)" d="m764.83 497.53h-32a8.5 8.5 0 0 1 0-17h32a8.5 8.5 0 0 1 0 17z" fill="#fff"/>
<path class="color3f3d56 svgShape" transform="translate(-170.62 -159.03)" d="m748.83 702.03a76 76 0 1 1 76-76 76.086 76.086 0 0 1-76 76zm0-150a74 74 0 1 0 74 74 74.084 74.084 0 0 0-74-74z" fill="#1f1f1f"/>
<path class="color3f3d56 svgShape" transform="translate(-170.62 -159.03)" d="m748.83 676.03a50 50 0 1 1 50-50 50.056 50.056 0 0 1-50 50zm0-98a48 48 0 1 0 48 48 48.054 48.054 0 0 0-48-48z" fill="#1f1f1f"/>
<circle class="colorccc svgShape" cx="578.2" cy="467" r="38" fill="#ccc"/>
<path class="colorfff svgShape" transform="translate(-170.62 -159.03)" d="m725.83 626.03a25.001 25.001 0 0 1 21.5-24.751 25 25 0 1 0 0 49.502 25.001 25.001 0 0 1-21.5-24.751z" fill="#fff"/>
<path class="color3f3d56 svgShape" transform="translate(-170.62 -159.03)" d="m914.83 514.03h-50v-1a25 25 0 0 1 50 0zm-47.979-2h45.957a23 23 0 0 0-45.957 0zm-294.02 30a10 10 0 1 1 10-10 10.011 10.011 0 0 1-10 10zm0-18a8 8 0 1 0 8 8 8.0092 8.0092 0 0 0-8-8z" fill="#1f1f1f"/>
<circle class="color6c63ff svgShape" cx="402.2" cy="373" r="5" fill="#151515"/>
<circle class="colorccc svgShape" cx="428.2" cy="373" r="5" fill="#ccc"/>
<circle class="colorccc svgShape" cx="454.2" cy="373" r="5" fill="#ccc"/>
<path class="color3f3d56 svgShape" transform="translate(-170.62 -159.03)" d="m598.83 542.03a10 10 0 1 1 10-10 10.011 10.011 0 0 1-10 10zm0-18a8 8 0 1 0 8 8 8.0092 8.0092 0 0 0-8-8zm26 18a10 10 0 1 1 10-10 10.011 10.011 0 0 1-10 10zm0-18a8 8 0 1 0 8 8 8.0092 8.0092 0 0 0-8-8z" fill="#1f1f1f"/>
<rect class="color3f3d56 svgShape" x="378.2" y="439.87" width="130" height="2" fill="#1f1f1f"/>
<rect class="color3f3d56 svgShape" x="378.2" y="480.13" width="126.77" height="2" fill="#1f1f1f"/>
<rect class="color3f3d56 svgShape" x="648.2" y="439.87" width="130" height="2" fill="#1f1f1f"/>
<rect class="color3f3d56 svgShape" x="651.2" y="480.13" width="126.77" height="2" fill="#1f1f1f"/>
<path class="color2f2e41 svgShape" transform="translate(-170.62 -159.03)" d="m443.45 401.51c-8.1095-3.7255-13.44-14.377-13.137-24.881s5.8315-20.329 13.456-25.338a26.649 26.649 0 0 1 25.219-1.9056c8.1825 3.483 19.169 4.4318 24.087 13.089 3.7796 6.6528 2.4181 21.495-0.25792 28.892-2.3129 6.394-7.9684 9.9966-13.483 12.013a45.34 45.34 0 0 1-37.511-3.0216" fill="#404040"/>
<polygon class="colorffb8b8 svgShape" points="223.38 568.71 211.72 564.91 220.8 518.14 238.01 523.74" fill="#fdd9d9"/>
<path class="color2f2e41 svgShape" transform="rotate(18.021 793.1 108.83)" d="m372.58 718.9h23.644v14.887h-38.531a14.887 14.887 0 0 1 14.887-14.887z" fill="#404040"/>
<polygon class="colorffb8b8 svgShape" points="327.75 568.96 315.49 568.96 309.66 521.67 327.75 521.67" fill="#fdd9d9"/>
<path class="color2f2e41 svgShape" d="m306.73 565.46h23.644v14.887h-38.531a14.887 14.887 0 0 1 14.887-14.887z" fill="#404040"/>
<path class="color2f2e41 svgShape" transform="translate(-170.62 -159.03)" d="m497.75 708.65c-0.07373 0-0.14746-2e-3 -0.22168-0.00585l-13.586-0.64747a4.5061 4.5061 0 0 1-4.2854-4.4326l-1.8411-134.39a1.5 1.5 0 0 0-2.8267-0.67871l-71.958 136.44a4.4762 4.4762 0 0 1-4.822 2.3213l-13.521-2.5752a4.4992 4.4992 0 0 1-3.4014-5.918l52.43-148.55 4.0344-43.943a4.4698 4.4698 0 0 1 3.936-4.0498c15.277-1.877 36.624-14.395 45.092-19.689a4.446 4.446 0 0 1 3.5305-0.53125 4.5558 4.5558 0 0 1 2.8308 2.2451 202.75 202.75 0 0 1 22.277 123.98l-13.217 96.54a4.4752 4.4752 0 0 1-4.4507 3.8907z" fill="#404040"/>
<circle class="colorffb8b8 svgShape" cx="290.56" cy="228.24" r="24.561" fill="#fdd9d9"/>
<path class="colorb3b3b3 svgShape" transform="translate(-170.62 -159.03)" d="m436.71 516.82-7.3955-52.845a31.045 31.045 0 0 1 60.574-13.635c2.106 9.7686 6.385 21.66 4.8218 34.479-10.953 30.399-30.835 39.772-58 32z" fill="#b3b3b3"/>
<path class="colorb3b3b3 svgShape" transform="translate(-170.62 -159.03)" d="m469.21 434.82h-18a4.5051 4.5051 0 0 1-4.5-4.5v-6a4.5051 4.5051 0 0 1 4.5-4.5h18a4.5051 4.5051 0 0 1 4.5 4.5v6a4.5051 4.5051 0 0 1-4.5 4.5z" fill="#b3b3b3"/>
<path class="colorffb8b8 svgShape" transform="translate(-170.62 -159.03)" d="m560.44 534.7a10.743 10.743 0 0 0-8.7149-13.979l-56.029-80.214-16.614 16.425 60.299 73.683a10.801 10.801 0 0 0 21.059 4.0847z" fill="#fdd9d9"/>
<path class="colorb3b3b3 svgShape" transform="translate(-170.62 -159.03)" d="m513.22 465.05-20.234 13.507a4.8169 4.8169 0 0 1-7.0291-1.9475l-10.365-21.928a13.377 13.377 0 0 1 22.295-14.789l16.229 17.919a4.8169 4.8169 0 0 1-0.8968 7.2386z" fill="#b3b3b3"/>
<path class="colorffb8b8 svgShape" transform="translate(-170.62 -159.03)" d="m362.5 426.92a10.526 10.526 0 0 1 0.2393 1.6401l42.957 24.782 10.441-6.0109 11.131 14.572-17.45 12.438a8 8 0 0 1-9.5982-0.23384l-44.297-34.946a10.497 10.497 0 1 1 6.5757-12.241z" fill="#fdd9d9"/>
<path class="colorb3b3b3 svgShape" transform="translate(-170.62 -159.03)" d="m418.18 471.35-10.794-21.802a4.8169 4.8169 0 0 1 2.835-6.7204l23.078-7.4597a13.377 13.377 0 0 1 11.8 24.012l-19.857 13.79a4.8169 4.8169 0 0 1-7.0632-1.82z" fill="#b3b3b3"/>
<path class="color2f2e41 svgShape" transform="translate(-170.62 -159.03)" d="m477.67 356.34a4.0633 4.0633 0 0 0 4.3168-2.4094 5.8506 5.8506 0 0 0-0.41558-5.1377 10.736 10.736 0 0 0-3.7759-3.7034 12.406 12.406 0 0 0-5.9816-2.0579 7.4612 7.4612 0 0 0-5.7939 2.1993 5.3768 5.3768 0 0 0-0.97171 5.9276c0.89811 1.7319 2.7825 2.7031 4.6186 3.3625a27.094 27.094 0 0 0 11.378 1.4944m4.4788 42.44c-4.2928 0.20179-3.5536-8.9072-4.8971-12.989s-3.1955-8.9513-7.4212-9.734c-3.463-0.6414-6.5925 1.8908-9.609 3.7086-5.3764 3.24-12.336 4.4352-17.981 1.6906s-9.0786-10.078-6.3329-15.723a12.876 12.876 0 0 1 8.049-6.3415 25.906 25.906 0 0 1 10.462-0.50253 53.527 53.527 0 0 1 21.886 7.7574c4.5819 2.8736 8.9417 6.7864 10.306 12.02s1.9198 19.465-3.413 20.366z" fill="#404040"/>
<path class="color2f2e41 svgShape" transform="translate(-170.62 -159.03)" d="m474.29 343.67c-3.2427-4.1108-2.0213-10.588 1.7582-14.211s9.3995-4.7529 14.615-4.292a29.621 29.621 0 0 1 24.025 17.275c3.2959 7.5393 3.2687 16.163 6.2494 23.832a32.137 32.137 0 0 0 43.41 17.543c5.1881-2.3921 10.128-7.0763 9.8321-12.782 3.2802 12.646-2.6276 27.112-13.823 33.847-6.5573 3.9448-14.323 5.284-21.92 6.2056-4.9507 0.60059-10.039 1.0474-14.87-0.18987-6.7592-1.731-12.418-6.7198-15.845-12.798s-4.7748-13.161-4.827-20.138c-0.04071-5.4353 0.67085-10.873 0.29483-16.296s-2.0061-11.031-5.9367-14.785-10.564-4.9899-14.878-1.6831c-1.7337 1.329-3.0043 3.2697-4.9563 4.2502s-5.036 0.21793-5.1666-1.9626z" fill="#404040"/>
<path class="color3f3d56 svgShape" transform="translate(-170.62 -159.03)" d="m380.18 427.1h-202.58a6.9935 6.9935 0 0 1-6.9854-6.9854v-114.1a6.9936 6.9936 0 0 1 6.9854-6.9854h202.58a6.9933 6.9933 0 0 1 6.9854 6.9854v114.1a6.9933 6.9933 0 0 1-6.9854 6.9854zm-202.58-126.51a5.4392 5.4392 0 0 0-5.4331 5.4331v114.1a5.4392 5.4392 0 0 0 5.4331 5.4331h202.58a5.4395 5.4395 0 0 0 5.4331-5.4331v-114.1a5.4394 5.4394 0 0 0-5.4331-5.4331z" fill="#1f1f1f"/>
<circle class="colore6e6e6 svgShape" cx="73.768" cy="191.12" r="28.967" fill="#e6e6e6"/>
<path class="color6c63ff svgShape" transform="translate(-170.62 -159.03)" d="m356.01 401.31-34.003-58.895a2.4215 2.4215 0 0 0-4.1941 0l-20.751 35.942-30.936-53.582a3.1047 3.1047 0 0 0-5.3774 0l-43.596 75.511a3.1046 3.1046 0 0 0 2.6887 4.657h134.07a2.4215 2.4215 0 0 0 2.0971-3.6322z" fill="#151515"/>
<rect class="color3f3d56 svgShape" x="14.747" y="153.97" width="12.419" height="12.419" fill="#1f1f1f"/>
<path class="colorccc svgShape" transform="translate(-170.62 -159.03)" d="m459.04 259.1h-158.29a5.4645 5.4645 0 0 1-5.4581-5.4582v-89.15a5.4645 5.4645 0 0 1 5.4581-5.4582h158.29a5.4643 5.4643 0 0 1 5.4582 5.4582v89.15a5.4643 5.4643 0 0 1-5.4582 5.4582zm-158.29-98.853a4.25 4.25 0 0 0-4.2452 4.2452v89.15a4.25 4.25 0 0 0 4.2452 4.2452h158.29a4.2502 4.2502 0 0 0 4.2452-4.2452v-89.15a4.2502 4.2502 0 0 0-4.2452-4.2452z" fill="#ccc"/>
<circle class="colorf2f2f2 svgShape" cx="182.31" cy="39.947" r="22.634" fill="#f2f2f2"/>
<path class="colore6e6e6 svgShape" transform="translate(-170.62 -159.03)" d="m440.15 238.95-26.569-46.018a1.892 1.892 0 0 0-3.2771 0l-16.214 28.084-24.172-41.867a2.4259 2.4259 0 0 0-4.2017 0l-34.064 59.001a2.4258 2.4258 0 0 0 2.1008 3.6388h104.76a1.8921 1.8921 0 0 0 1.6386-2.8381z" fill="#e6e6e6"/>
<rect class="colorccc svgShape" x="136.2" y="10.916" width="9.703" height="9.703" fill="#ccc"/>
</svg>
</svg>
